{"title":"Masaan (2015) Hindi 720p DVDRip x264 AAC [ TaRa ].mkv","uid":15377976,"size":1223396512,"categoryP":"video","categoryS":"movies_dvdr","magnet":"?xt=urn:btih:2ba0a7ecd84fdd48d9df515111624f4b27e445e1&amp;dn=Masaan+%282015%29+Hindi+720p+DVDRip+x264+AAC+%5B+TaRa+%5D.mkv&amp;tr=udp%3A%2F%2Ftracker.leechers-paradise.org%3A6969&amp;tr=udp%3A%2F%2Fzer0day.ch%3A1337&amp;tr=udp%3A%2F%2Fopen.demonii.com%3A1337&amp;tr=udp%3A%2F%2Ftracker.coppersurfer.tk%3A6969&amp;tr=udp%3A%2F%2Fexodus.desync.com%3A6969","seeders":0,"leechers":3,"uploader":"MdTaRa","files":1,"time":1469206850,"description":"========================================================================\r\nGeneral\r\nMasaan (2015) Hindi 720p DVDRip x264 AAC [ TaRa ].mkv\r\nFormat                      : Matroska\r\nFormat version              : Version 4 / Version 2\r\nFile size                   : 1.14 GiB\r\nDuration                    : 1h 48mn\r\nOverall bit rate mode       : Variable\r\nOverall bit rate            : 1 500 Kbps\r\n========================================================================\r\nVideo\r\nID                          : 1\r\nFormat                      : AVC\r\nFormat/Info                 : Advanced Video Codec\r\nFormat profile              :   \r\nFormat settings, CABAC      : Yes\r\nFormat settings, ReFrames   : 3 frames\r\nCodec ID                    : V_MPEG4/ISO/AVC\r\nDuration                    : 1h 48mn\r\nBit rate mode               : Variable\r\nBit rate                    : 1 402 Kbps\r\nMaximum bit rate            : 40.0 Mbps\r\nWidth                       : 1 280 pixels\r\nHeight                      : 696 pixels\r\nDisplay aspect ratio        : 1.85:1\r\nFrame rate mode             : Constant\r\nFrame rate                  : 23.976 (24000/1001) fps\r\nColor space                 : YUV\r\nChroma subsampling          : 4:2:0\r\nBit depth                   : 8 bits\r\nScan type                   : Progressive\r\nBits/(Pixel*Frame)          : 0.066\r\nStream size                 : 1.06 GiB (93%)\r\nTitle                       : .....::::: TaRa :::::.....\r\nLanguage                    : Hindi\r\nDefault                     : Yes\r\nForced                      : No\r\n==========================================================================\r\nAudio\r\nID                          : 2\r\nFormat                      : AAC\r\nFormat/Info                 : Advanced Audio Codec\r\nFormat profile              : LC\r\nCodec ID                    : A_AAC\r\nDuration                    : 1h 48mn\r\nBit rate                    : 96.0 Kbps\r\nChannel(s)                  : 2 channels\r\nChannel positions           : Front: L R\r\nSampling rate               : 44.1 KHz\r\nFrame rate                  : 43.066 fps (1024 spf)\r\nCompression mode            : Lossy\r\nDelay relative to video     : 10ms\r\nStream size                 : 74.5 MiB (6%)\r\nTitle                       : .....::::: TaRa :::::.....\r\nLanguage                    : Hindi\r\nDefault                     : Yes\r\nForced                      : No\r\n============================================================================== \nhttp://imgur.com/L8Jqc9u","torrent":{"xt":"urn:btih:2ba0a7ecd84fdd48d9df515111624f4b27e445e1","amp;dn":"Masaan+%282015%29+Hindi+720p+DVDRip+x264+AAC+%5B+TaRa+%5D.mkv","amp;tr":["udp%3A%2F%2Ftracker.leechers-paradise.org%3A6969","udp%3A%2F%2Fzer0day.ch%3A1337","udp%3A%2F%2Fopen.demonii.com%3A1337","udp%3A%2F%2Ftracker.coppersurfer.tk%3A6969","udp%3A%2F%2Fexodus.desync.com%3A6969"],"infoHash":"2ba0a7ecd84fdd48d9df515111624f4b27e445e1","infoHashBuffer":{"type":"Buffer","data":[43,160,167,236,216,79,221,72,217,223,81,81,17,98,79,75,39,228,69,225]},"announce":[],"urlList":[]}}